<?xml version="1.0" encoding="utf-8"?>
<!-- Generator: Adobe Illustrator 23.0.1, SVG Export Plug-In . SVG Version: 6.00 Build 0)  -->
<svg version="1.1" id="Layer_1" xmlns="http://www.w3.org/2000/svg" xmlns:xlink="http://www.w3.org/1999/xlink" x="0px" y="0px"
	 viewBox="0 0 270 70" style="enable-background:new 0 0 270 70;" xml:space="preserve">
<style type="text/css">
	.st0{fill:#3DDC84;}
</style>
<g id="Android_new_logo_2019" transform="translate(37.000000, 20.000000)">
	<path id="Shape" d="M9.4,9.6c2.8,0,5.2,1.5,6.3,3V10H20v19.6h-3.1c-0.3,0-0.6-0.1-0.9-0.4c-0.2-0.2-0.4-0.5-0.4-0.9V27
		c-1.1,1.6-3.4,3-6.2,3C4.1,30,0,25.4,0,19.8S4.1,9.6,9.4,9.6 M10.2,13.5c-3.5,0-5.8,2.8-5.8,6.3s2.3,6.3,5.8,6.3
		c3.5,0,5.8-2.8,5.8-6.3S13.7,13.5,10.2,13.5 M24.9,10h4.3v2.7c1.2-2,3.4-3,6-3c4.5,0,7.5,3.2,7.5,8.2v11.8h-3.1
		c-0.3,0-0.6-0.1-0.9-0.4c-0.2-0.2-0.4-0.5-0.4-0.9v-9.8c0-3.1-1.6-5-4.1-5c-2.9,0-5,2.2-5,6.4v9.6h-3.1c-0.3,0-0.6-0.1-0.9-0.4
		c-0.2-0.2-0.4-0.5-0.4-0.9V10z M55.5,9.6c2.8,0,5.2,1.5,6.3,3V0.2H66v29.4H63c-0.3,0-0.6-0.1-0.9-0.4c-0.2-0.2-0.4-0.5-0.4-0.9V27
		c-1.1,1.6-3.5,3-6.3,3c-5.4,0-9.4-4.6-9.4-10.2C46,14.2,50.1,9.6,55.5,9.6 M56.2,13.5c-3.5,0-5.8,2.8-5.8,6.3s2.3,6.3,5.8,6.3
		c3.5,0,5.8-2.8,5.8-6.3S59.7,13.5,56.2,13.5 M70.9,10h4.3v3.5c0.8-2.2,2.8-3.7,5.2-3.7c0.6,0,1.1,0.1,1.7,0.2v4.4
		c-0.7-0.2-1.4-0.4-2.2-0.4c-2.5,0-4.7,2.1-4.7,6v9.5h-3.1c-0.3,0-0.6-0.1-0.9-0.4c-0.2-0.2-0.4-0.5-0.4-0.9L70.9,10L70.9,10z
		 M93.7,30c-5.8,0-10.2-4.5-10.2-10.2S87.9,9.6,93.7,9.6S104,14.1,104,19.8S99.5,30,93.7,30 M93.7,26c3.5,0,5.9-2.7,5.9-6.2
		s-2.4-6.2-5.9-6.2c-3.5,0-5.9,2.7-5.9,6.2S90.2,26,93.7,26 M109.6,5.8c-1.6,0-2.9-1.3-2.9-2.9c0-1.6,1.3-2.8,2.9-2.9
		c1.6,0,2.9,1.3,2.9,2.9S111.2,5.8,109.6,5.8 M107.5,10h4.3v19.6h-3.1c-0.3,0-0.6-0.1-0.9-0.4c-0.2-0.2-0.4-0.5-0.4-0.9V10L107.5,10
		z M124.7,9.6c2.8,0,5.2,1.5,6.3,3V0.2h4.3v29.4h-3.1c-0.3,0-0.6-0.1-0.9-0.4c-0.2-0.2-0.4-0.5-0.4-0.9V27c-1.1,1.6-3.5,3-6.3,3
		c-5.4,0-9.4-4.6-9.4-10.2C115.3,14.2,119.4,9.6,124.7,9.6 M125.5,13.5c-3.5,0-5.8,2.8-5.8,6.3s2.3,6.3,5.8,6.3
		c3.5,0,5.8-2.8,5.8-6.3S129,13.5,125.5,13.5"/>
	<path class="st0" d="M182.8,22.2c-1.2,0-2.2-1-2.2-2.2s1-2.2,2.2-2.2s2.2,1,2.2,2.2S184,22.2,182.8,22.2 M158.8,22.2
		c-1.2,0-2.2-1-2.2-2.2s1-2.2,2.2-2.2s2.2,1,2.2,2.2S160,22.2,158.8,22.2 M183.6,9.1l4.4-7.5c0.2-0.3,0.2-0.6,0-0.9
		s-0.5-0.4-0.8-0.4c-0.3,0-0.6,0.2-0.8,0.5L182,8.3c-3.5-1.6-7.3-2.4-11.2-2.4c-3.9,0-7.7,0.8-11.2,2.4l-4.4-7.6
		c-0.2-0.4-0.8-0.6-1.2-0.3c-0.4,0.2-0.6,0.8-0.3,1.2l4.3,7.5c-7.6,4.2-12.6,11.9-13.3,20.5h52.2C196.2,21,191.2,13.3,183.6,9.1"/>
</g>
</svg>
