<svg xmlns="http://www.w3.org/2000/svg" width="143" height="40" viewBox="0 0 143 40"><g><g><g><path fill="#44d1fd" d="M15.466 23.002l6.188 6.15 10.753-10.743-11.799-.003c-.224.027-.52-.077-.68.135zM.09 19.967l6.156 6.163 5.41-5.38L32.418 0 20.043.014z"/></g><g opacity=".54"><path d="M76.13 15.387l-.013 9.93c-.01 1.214.164 2.54 1.004 3.482 1.084 1.2 2.92 1.42 4.403.945 1.981-.709 3.364-2.806 3.284-4.903l.03-9.504 2.83.006-.016 16.674c-.897-.015-1.794 0-2.69-.01l-.01-2.373c-.58.728-1.19 1.466-2.023 1.925-1.704 1.075-3.866 1.217-5.775.667a5.008 5.008 0 0 1-2.92-2.36c-.733-1.24-.918-2.705-.96-4.117l.033-10.412c.94.04 1.888-.056 2.823.05zm66.69-.18v2.995c-1.078-.424-2.285-.686-3.423-.351-1.555.462-2.705 1.85-3.146 3.376-.303 1.03-.19 2.107-.177 3.164-.118 1.367.059 2.736-.03 4.104.072 1.18-.064 2.362.036 3.544-.942.046-1.885-.003-2.826.029-.054-3.564-.007-7.13-.022-10.696l.02-6.002c.884.025 1.769-.003 2.654.019.08.885-.099 1.775.048 2.657 1.056-2.567 4.3-3.914 6.865-2.84zm-22.878 2.619c-1.612.747-2.65 2.406-2.974 4.12l10.105-.033c-.16-1.119-.557-2.256-1.374-3.066-1.432-1.54-3.88-1.84-5.757-1.021zm-1.04-2.397c1.917-.795 4.131-.81 6.09-.144 2.244.774 3.98 2.732 4.617 5.003.416 1.26.4 2.597.34 3.906l-13.189.014c.11 1.404.53 2.836 1.505 3.89 1.386 1.617 3.773 2.217 5.788 1.583 1.413-.417 2.516-1.505 3.242-2.755.803.36 1.583.768 2.383 1.136-1.093 2.085-3.083 3.741-5.42 4.19-1.92.359-4.02.368-5.781-.58-2.285-1.135-3.858-3.446-4.306-5.93-.326-1.91-.224-3.93.494-5.742zm-10.712-4.774l.064.07c.035 1.542-.047 3.089.036 4.628 1.318-.024 2.636-.004 3.953-.012l.009 2.555c-1.326.05-2.656.02-3.981.012l-.015 9.517c-.002.828.238 1.809 1.04 2.216.984.537 2.178.26 3.093-.288l-.004 2.737c-.975.44-2.074.524-3.127.403-1.366-.182-2.704-.953-3.346-2.203a5.454 5.454 0 0 1-.51-2.102v-10.27c-.96-.001-1.92.004-2.878 0l.006-2.586c.945.026 1.89-.007 2.835.024.1-1.57-.008-3.15.051-4.722.925.031 1.85-.011 2.774.02zm-14.516-.012l2.779.001.004 4.697c1.36.034 2.726-.06 4.082.047-.038.843-.006 1.685-.021 2.527-1.352.003-2.702.014-4.052-.006l-.01 9.355c.029.867.213 1.914 1.056 2.36.962.548 2.144.29 3.054-.237v2.72c-1.003.455-2.147.51-3.224.363-1.518-.232-2.973-1.267-3.432-2.771-.304-.824-.235-1.714-.24-2.574l-.007-9.111-.068-.077c-.959-.052-1.921.007-2.882-.026.006-.858-.033-1.715.022-2.571.975-.017 1.956.044 2.93-.03zm-27.11-1.968h2.77l.002 15.872-.03 7.475a59.537 59.537 0 0 0-2.703.003c-.07-.37-.041-.746-.041-1.119zm-3.27 0l-.002 2.656c-3.529 0-7.059-.011-10.59.004-.269.09-.142.427-.172.635l.01 7.144c.09.268.43.14.638.173l9.055-.005v2.653h-8.444c-.418-.001-.84-.027-1.254.044l-.032 10.085c-.908-.036-1.814-.003-2.721-.023L49.78 9.1l.024-.429z"/></g><g><path fill="#1fbcfd" d="M9.3 29.16L15.468 23l6.188 6.15.026.027-6.212 6.155L9.3 29.16z"/></g><g><path fill="#08589c" d="M15.47 35.335l6.212-6.155 10.732 10.742c-4.042.01-8.083-.003-12.124.006-.23.052-.373-.159-.52-.289l-4.3-4.304z"/></g></g></g></svg>