<?xml version="1.0" encoding="utf-8"?>
<!-- Generator: Adobe Illustrator 23.0.1, SVG Export Plug-In . SVG Version: 6.00 Build 0)  -->
<svg version="1.1" id="Layer_1" xmlns="http://www.w3.org/2000/svg" xmlns:xlink="http://www.w3.org/1999/xlink" x="0px" y="0px"
	 viewBox="0 0 270 70" style="enable-background:new 0 0 270 70;" xml:space="preserve">
<style type="text/css">
	.st0{fill:#231F20;}
</style>
<path id="Shape" class="st0" d="M131.8,53.5h-3V35.7h3V53.5z M130.3,32.7c-1,0-1.9-0.9-1.9-1.9s0.9-1.9,1.9-1.9s1.9,0.9,1.9,1.9
	S131.4,32.7,130.3,32.7z M148.3,53.9c-7.9,0-12.9-5.6-12.9-14.5s5-14.5,12.9-14.5s12.9,5.6,12.9,14.5S156.1,53.9,148.3,53.9z
	 M158.3,39.4c0-7.4-3.9-12.1-10.1-12.1c-6.2,0-10.1,4.7-10.1,12.1s3.9,12,10.1,12C154.5,51.4,158.3,46.8,158.3,39.4z M174.2,53.9
	c-5.9,0-10.1-3.3-10.4-8.1h2.7c0.3,3.4,3.4,5.6,7.9,5.6c4.3,0,7.3-2.4,7.3-5.5c0-2.7-1.8-4.1-6.1-5.2l-3.6-0.9
	c-5.2-1.3-7.6-3.6-7.6-7.3c0-4.6,4.1-7.9,9.6-7.9c5.5,0,9.5,3.3,9.6,7.7h-2.4c-0.1-3.1-3-5.2-7-5.2c-3.9,0-6.8,2.2-6.8,5.3
	c0,2.4,1.8,3.9,5.9,4.9l3.1,0.7c5.6,1.5,8,3.6,8,7.6C184.4,50.7,180.6,53.9,174.2,53.9z M117,46.2c-0.6,1.3-1.3,2.7-2.1,3.7
	c-1,1.6-1.9,2.7-2.7,3.3c-1,1-2.2,1.5-3.4,1.5c-0.9,0-1.9-0.3-3.3-0.7c-1.2-0.4-2.4-0.7-3.4-0.7c-1,0-2.2,0.3-3.6,0.7
	c-1.2,0.4-2.2,0.7-3.1,0.7c-1.2,0-2.4-0.4-3.6-1.6c-0.7-0.6-1.6-1.8-2.8-3.4c-1.2-1.6-2.2-3.7-3-5.9c-0.7-2.2-1.2-4.6-1.2-6.8
	c0-2.7,0.6-4.9,1.6-6.7c0.9-1.5,2.1-2.7,3.6-3.6c1.5-0.9,3.1-1.3,4.7-1.3c0.9,0,2.2,0.3,3.7,0.9c1.5,0.6,2.5,0.9,3,0.9
	c0.3,0,1.3-0.3,3.3-1c1.8-0.6,3.3-0.9,4.4-0.7c3.3,0.3,5.8,1.5,7.4,3.9c-3,1.8-4.3,4.3-4.3,7.4c0,2.5,0.9,4.6,2.7,6.2
	c0.7,0.7,1.6,1.3,2.7,1.8C117.4,45,117.1,45.6,117,46.2z M109.4,16.7c0,1.9-0.7,3.7-2.1,5.5c-1.6,1.9-3.7,3.1-5.9,3
	c0-0.3,0-0.4,0-0.7c0-1.9,0.7-3.9,2.2-5.5c0.7-0.9,1.6-1.5,2.7-2.1c1-0.6,2.1-0.9,3.1-0.9C109.4,16.3,109.4,16.4,109.4,16.7
	L109.4,16.7z"/>
</svg>
