<svg xmlns="http://www.w3.org/2000/svg" width="148" height="40" viewBox="0 0 148 40"><g><g><g><path fill="#404137" d="M70.314 22.91c.051 0 .112.012.158.039l3.39 1.962a.307.307 0 0 1 .158.258v3.923a.305.305 0 0 1-.159.258l-3.389 1.962a.3.3 0 0 1-.297 0l-3.389-1.962a.306.306 0 0 1-.158-.258V25.17c0-.107.066-.205.158-.258l3.39-1.962a.261.261 0 0 1 .138-.04zm29.568-8.522c-.207 0-.409.052-.595.158l-9.889 5.708c-.369.213-.594.604-.594 1.03V32.7c0 .429.242.818.614 1.03l9.81 5.589a1.19 1.19 0 0 0 1.17.02l5.945-3.31a.6.6 0 0 0 .317-.515.585.585 0 0 0-.298-.516l-9.948-5.707a.64.64 0 0 1-.317-.535v-3.568c0-.213.132-.408.317-.515l3.092-1.783a.594.594 0 0 1 .594 0l3.092 1.783a.593.593 0 0 1 .297.515v2.815a.592.592 0 0 0 .892.515l5.925-3.448c.368-.214.595-.606.595-1.031v-2.755a1.19 1.19 0 0 0-.595-1.03l-9.83-5.708a1.179 1.179 0 0 0-.594-.158zm-88.863-.139c-.189.008-.366.04-.535.139l-9.89 5.707A1.184 1.184 0 0 0 0 21.126l.02 15.32c0 .212.11.41.297.514.184.11.412.11.595 0l5.866-3.369c.371-.22.614-.604.614-1.03v-7.154c0-.427.225-.819.595-1.03l2.497-1.448a1.17 1.17 0 0 1 .594-.158c.204 0 .413.05.595.158l2.497 1.447c.37.212.594.604.594 1.03v7.155c0 .426.245.812.615 1.03l5.866 3.37a.596.596 0 0 0 .892-.515l.02-15.32c0-.43-.224-.818-.595-1.03l-9.89-5.708a1.11 1.11 0 0 0-.534-.139zM74.627 0a.6.6 0 0 0-.297.08.6.6 0 0 0-.297.515v15.16c0 .15-.07.282-.198.357a.413.413 0 0 1-.416 0l-2.476-1.427a1.186 1.186 0 0 0-1.189 0l-9.884 5.708c-.37.213-.595.623-.595 1.05v11.415c0 .427.225.817.595 1.03l9.884 5.708c.37.214.82.214 1.189 0l9.884-5.707c.37-.214.595-.604.595-1.03V4.398c0-.432-.237-.838-.614-1.05L74.924.06A.58.58 0 0 0 74.627 0z"/></g><g><path fill="#83cd29" d="M99.969 24.534l1.907 1.11c.07.04.12.116.12.198v2.18a.233.233 0 0 1-.12.198l-1.907 1.09a.209.209 0 0 1-.218 0l-1.907-1.09a.232.232 0 0 1-.12-.198v-2.18c0-.082.048-.157.12-.198l1.907-1.11c.035-.02.08-.02.119-.02.04 0 .064 0 .099.02zm32.04-2.735c2.987 0 4.47 1.045 4.657 3.267.008.077-.028.141-.079.198-.051.054-.123.1-.198.1h-1.209a.27.27 0 0 1-.258-.219c-.29-1.29-.998-1.702-2.913-1.702-2.144 0-2.378.747-2.378 1.306 0 .678.276.865 3.171 1.248 2.865.378 4.241.918 4.241 2.93 0 2.03-1.704 3.188-4.657 3.188-4.08 0-4.935-1.856-4.935-3.426 0-.149.129-.277.278-.277h1.208c.135 0 .237.106.258.238.182 1.226.724 1.841 3.19 1.841 1.964 0 2.795-.444 2.795-1.485 0-.6-.238-1.048-3.29-1.346-2.55-.252-4.122-.812-4.122-2.851 0-1.88 1.583-3.01 4.241-3.01zm13.516-7.412h.454l.65 1.962.672-1.962h.434v2.319h-.296V15.34 15.1c.003-.112.02-.232.02-.357l-.671 1.962h-.316l-.651-1.962v.06c0 .057-.004.16 0 .277.003.116 0 .202 0 .258v1.367h-.296v-2.318zm-2.16 0h1.893v.278h-.797v2.041h-.32v-2.041h-.776zm-102.042.1l9.889 5.687c.37.213.594.624.594 1.05V32.64c0 .427-.225.817-.594 1.03l-9.89 5.708c-.369.213-.819.213-1.188 0l-9.89-5.708a1.186 1.186 0 0 1-.594-1.03V21.225c0-.427.225-.838.595-1.05l9.889-5.688a1.184 1.184 0 0 1 1.19 0zm88.19-.377c.342 0 .678.07.97.238l9.335 5.39c.604.35.97 1.005.97 1.705v10.76c0 .7-.366 1.354-.97 1.705l-9.335 5.37a1.914 1.914 0 0 1-.97.258c-.342 0-.674-.085-.972-.257l-3.131-1.843c-.465-.26-.232-.343-.08-.397.621-.215.746-.259 1.408-.634a.25.25 0 0 1 .238 0l2.397 1.427a.288.288 0 0 0 .278 0l9.334-5.37a.299.299 0 0 0 .139-.258V21.443a.316.316 0 0 0-.159-.258l-9.314-5.37a.275.275 0 0 0-.278 0l-9.314 5.37a.314.314 0 0 0-.158.258v10.76c0 .104.069.19.158.239l2.537 1.486c1.385.693 2.24-.132 2.24-.951V22.354c0-.15.127-.257.277-.257h1.169c.147 0 .277.107.277.257v10.623c0 1.849-1 2.913-2.754 2.913-.54 0-.976.009-2.16-.575l-2.438-1.407a1.968 1.968 0 0 1-.971-1.704V21.443c0-.7.367-1.357.97-1.705l9.335-5.39c.295-.167.628-.238.971-.238z"/></g></g></g></svg>