<svg xmlns="http://www.w3.org/2000/svg" width="221" height="64" viewBox="0 0 221 64"><g><g><g><path fill="white" d="M13 12h39.967v39.967H13z"/></g><g><path fill="#05a5cd" d="M34.552 35.303a3.342 3.342 0 1 0 0-6.683 3.342 3.342 0 0 0 0 6.683z"/></g><g><path fill="none" stroke="#05a5d1" stroke-miterlimit="20" stroke-width="1.6" d="M34.552 25.16c4.487 0 8.655.644 11.797 1.726 3.787 1.303 6.115 3.28 6.115 5.068 0 1.865-2.467 3.964-6.533 5.311-3.075 1.019-7.12 1.55-11.379 1.55-4.367 0-8.502-.499-11.61-1.561-3.933-1.344-6.302-3.47-6.302-5.3 0-1.774 2.223-3.735 5.956-5.037 3.155-1.1 7.425-1.757 11.956-1.757z"/></g><g><path fill="none" stroke="#05a5cd" stroke-miterlimit="20" stroke-width="1.6" d="M28.637 28.578c2.241-3.887 4.881-7.176 7.388-9.358 3.021-2.628 5.896-3.658 7.446-2.764 1.615.931 2.2 4.117 1.337 8.313-.654 3.172-2.214 6.941-4.342 10.63-2.181 3.784-4.68 7.116-7.153 9.278-3.129 2.736-6.154 3.726-7.739 2.812-1.537-.887-2.125-3.792-1.388-7.676.624-3.282 2.187-7.31 4.45-11.235z"/></g><g><path fill="none" stroke="#05a5d1" stroke-miterlimit="20" stroke-width="1.6" d="M28.643 35.413c-2.248-3.882-3.779-7.812-4.417-11.074-.769-3.93-.225-6.935 1.323-7.831 1.614-.935 4.667.15 7.87 2.993 2.421 2.15 4.908 5.385 7.042 9.07 2.188 3.78 3.828 7.609 4.466 10.83.807 4.078.153 7.194-1.43 8.11-1.535.89-4.346-.052-7.343-2.631-2.532-2.179-5.24-5.546-7.51-9.467z"/></g><g><g><text dominant-baseline="text-before-edge" style="font-kerning:normal" font-family="Helvetica" font-size="28.27" transform="translate(60 14)"><tspan style="font-kerning:normal">React Native</tspan></text></g></g></g></g></svg>