<svg xmlns="http://www.w3.org/2000/svg" width="138" height="50" viewBox="0 0 138 50"><g><g><g><path fill="#110b09" d="M115.766 31.166h1.237v3.85s-.55.093-2.657.093c-2.564 0-5.403-1.009-5.403-4.768V18.654h-2.747v-3.483h2.747V8.983h4.854v6.233h3.114V18.7h-3.114v10.541c0 1.467.824 1.971 1.97 1.925zm16.509-15.95h5.225l-7.013 20.397c-1.512 4.4-2.933 6.003-6.966 6.003h-3.117v-4.17h1.88c2.062 0 2.932-1.054 2.932-2.704 0-1.1-.366-2.384-1.512-5.409l-5.362-14.162h5.224l3.255 8.983c.641 1.833 1.283 4.354 1.283 4.354h.137s.505-2.52 1.146-4.354l2.888-8.983zM99.871 8.985h4.858v3.987h-4.858zm0 6.187h4.858v19.892h-4.858zM72.318 26.675V15.171h4.856v19.938H72.5V32.77h-.137c-1.329 1.833-2.886 2.888-5.68 2.888-4.444 0-6.918-2.842-6.918-7.196V15.17h4.856v12.375c0 2.338 1.42 3.62 3.665 3.62 2.473 0 3.985-1.832 3.985-4.491zm18.111-12.054c4.125 0 6.875 3.116 6.83 7.47v13.017H92.4V22.871c0-2.337-1.65-3.667-3.85-3.667-2.337 0-4.034 1.88-4.034 4.583v11.276h-4.858V15.17h4.767v2.704h.091c1.375-2.108 3.209-3.254 5.913-3.254zM49.775 19.8l-3.071 5.133 3.071 5.134-5.454 19.754-20.305-5.317-3.025-5.179-6.095.046L0 24.887l14.896-14.483 6.095.046 3.025-5.179L44.322 0zm-39.554 2.613h17.875l8.937-15.034-15.537 3.896zM37.079 42.35l-8.938-15.034H10.268l11.229 11.138zm8.617-17.463L41.387 9.854 32.45 24.888l8.937 15.033z"/></g></g></g></svg>